HIERARCHY
ROOT newVegas:Hips
{
	OFFSET 0.000000 96.479958 0.000000
	CHANNELS 6 Xposition Yposition Zposition Xrotation Yrotation Zrotation
	JOINT newVegas:Pelvis
	{
		OFFSET 0.000000 0.000000 0.000000
		CHANNELS 3 Xrotation Yrotation Zrotation
		JOINT newVegas:LeftUpLeg
		{
			OFFSET 18.735201 -5.666702 -4.541200
			CHANNELS 3 Xrotation Yrotation Zrotation
			JOINT newVegas:LeftLeg
			{
				OFFSET -0.021200 -31.938179 0.493100
				CHANNELS 3 Xrotation Yrotation Zrotation
				JOINT newVegas:LeftFoot
				{
					OFFSET 0.021200 -31.938179 -4.336299
					CHANNELS 3 Xrotation Yrotation Zrotation
					JOINT newVegas:LeftToeBase
					{
						OFFSET 0.943001 -26.722000 15.023500
						CHANNELS 3 Xrotation Yrotation Zrotation
						End Site
						{
							OFFSET 0.000000 30.670183 0.000000
						}
					}
				}
				JOINT newVegas:Left_PantLeg
				{
					OFFSET 0.663870 -9.044666 -1.108900
					CHANNELS 3 Xrotation Yrotation Zrotation
					End Site
					{
						OFFSET 1.415995 20.635357 0.000000
					}
				}
			}
		}
		JOINT newVegas:RightUpLeg
		{
			OFFSET -18.735201 -5.666702 -4.541200
			CHANNELS 3 Xrotation Yrotation Zrotation
			JOINT newVegas:RightLeg
			{
				OFFSET 0.018946 -31.938133 0.493100
				CHANNELS 3 Xrotation Yrotation Zrotation
				JOINT newVegas:RightFoot
				{
					OFFSET -0.018946 -31.938126 -4.336299
					CHANNELS 3 Xrotation Yrotation Zrotation
					JOINT newVegas:RightToeBase
					{
						OFFSET -0.943001 -26.722004 15.023500
						CHANNELS 3 Xrotation Yrotation Zrotation
						End Site
						{
							OFFSET 0.000000 30.670187 0.000000
						}
					}
				}
				JOINT newVegas:Right_PantLeg
				{
					OFFSET -0.661674 -9.044716 -1.108900
					CHANNELS 3 Xrotation Yrotation Zrotation
					End Site
					{
						OFFSET -1.415958 20.635269 0.000000
					}
				}
			}
		}
	}
	JOINT newVegas:Spine
	{
		OFFSET 0.000000 10.199997 -0.299500
		CHANNELS 3 Xrotation Yrotation Zrotation
		JOINT newVegas:Spine1
		{
			OFFSET 0.000000 11.900002 -1.516600
			CHANNELS 3 Xrotation Yrotation Zrotation
			JOINT newVegas:Spine2
			{
				OFFSET 0.000000 13.600006 -2.842500
				CHANNELS 3 Xrotation Yrotation Zrotation
				JOINT newVegas:Neck
				{
					OFFSET 0.000000 9.624100 -2.890100
					CHANNELS 3 Xrotation Yrotation Zrotation
					JOINT newVegas:Head
					{
						OFFSET 0.000000 14.068802 -1.351900
						CHANNELS 3 Xrotation Yrotation Zrotation
						JOINT newVegas:Hair_Back
						{
							OFFSET 0.000000 3.231903 -17.524799
							CHANNELS 3 Xrotation Yrotation Zrotation
							End Site
							{
								OFFSET 0.000000 19.849884 0.000000
							}
						}
						JOINT newVegas:Hair_Front
						{
							OFFSET 0.000000 31.260406 4.573800
							CHANNELS 3 Xrotation Yrotation Zrotation
							JOINT newVegas:Hair_Front1
							{
								OFFSET 0.000000 2.284103 11.993300
								CHANNELS 3 Xrotation Yrotation Zrotation
								JOINT newVegas:Hair_Front2
								{
									OFFSET 0.000000 2.284103 11.993300
									CHANNELS 3 Xrotation Yrotation Zrotation
									End Site
									{
										OFFSET 0.000000 12.208862 0.000000
									}
								}
							}
						}
						JOINT newVegas:Jowel
						{
							OFFSET 0.000000 -7.458206 6.864100
							CHANNELS 3 Xrotation Yrotation Zrotation
							End Site
							{
								OFFSET 0.000000 19.849884 0.000000
							}
						}
					}
				}
				JOINT newVegas:LeftShoulder
				{
					OFFSET 15.263000 10.923401 -0.547700
					CHANNELS 3 Xrotation Yrotation Zrotation
					JOINT newVegas:LeftArm
					{
						OFFSET 25.438599 -2.830597 -13.032500
						CHANNELS 3 Xrotation Yrotation Zrotation
						JOINT newVegas:LeftForeArm
						{
							OFFSET 29.960503 0.000000 0.000000
							CHANNELS 3 Xrotation Yrotation Zrotation
							JOINT newVegas:LeftHand
							{
								OFFSET 27.849251 0.000000 0.000000
								CHANNELS 3 Xrotation Yrotation Zrotation
								JOINT newVegas:LeftHandThumb1
								{
									OFFSET 4.487587 -3.305161 6.305391
									CHANNELS 3 Xrotation Yrotation Zrotation
									JOINT newVegas:LeftHandThumb2
									{
										OFFSET 5.480453 -3.164139 3.164143
										CHANNELS 3 Xrotation Yrotation Zrotation
										JOINT newVegas:LeftHandThumb3
										{
											OFFSET 5.159721 -2.978973 2.978967
											CHANNELS 3 Xrotation Yrotation Zrotation
											End Site
											{
												OFFSET 2.494507 5.926697 1.738678
											}
										}
									}
								}
								JOINT newVegas:LeftHandIndex1
								{
									OFFSET 18.578728 -0.527832 5.208049
									CHANNELS 3 Xrotation Yrotation Zrotation
									JOINT newVegas:LeftHandIndex2
									{
										OFFSET 3.192009 0.000000 0.000000
										CHANNELS 3 Xrotation Yrotation Zrotation
										JOINT newVegas:LeftHandIndex3
										{
											OFFSET 3.835129 0.000000 0.000000
											CHANNELS 3 Xrotation Yrotation Zrotation
											End Site
											{
												OFFSET -0.034599 3.816971 0.371180
											}
										}
									}
								}
								JOINT newVegas:LeftHandMiddle1
								{
									OFFSET 18.476105 0.000000 0.000000
									CHANNELS 3 Xrotation Yrotation Zrotation
									JOINT newVegas:LeftHandMiddle2
									{
										OFFSET 3.324875 0.000000 0.000000
										CHANNELS 3 Xrotation Yrotation Zrotation
										JOINT newVegas:LeftHandMiddle3
										{
											OFFSET 4.596550 0.000000 0.000000
											CHANNELS 3 Xrotation Yrotation Zrotation
											End Site
											{
												OFFSET 0.057701 4.578827 0.399218
											}
										}
									}
								}
								JOINT newVegas:LeftHandRing1
								{
									OFFSET 17.732719 0.121887 -4.201567
									CHANNELS 3 Xrotation Yrotation Zrotation
									JOINT newVegas:LeftHandRing2
									{
										OFFSET 2.733170 0.000000 0.000000
										CHANNELS 3 Xrotation Yrotation Zrotation
										JOINT newVegas:LeftHandRing3
										{
											OFFSET 3.178268 0.000000 0.000000
											CHANNELS 3 Xrotation Yrotation Zrotation
											End Site
											{
												OFFSET 0.119102 3.170624 0.185394
											}
										}
									}
								}
								JOINT newVegas:LeftHandPinky1
								{
									OFFSET 15.989624 -0.606689 -7.535461
									CHANNELS 3 Xrotation Yrotation Zrotation
									JOINT newVegas:LeftHandPinky2
									{
										OFFSET 2.538986 0.000000 0.000000
										CHANNELS 3 Xrotation Yrotation Zrotation
										JOINT newVegas:LeftHandPinky3
										{
											OFFSET 2.593102 0.000000 0.000000
											CHANNELS 3 Xrotation Yrotation Zrotation
											End Site
											{
												OFFSET -0.150902 2.584198 0.152708
											}
										}
									}
								}
							}
							JOINT newVegas:Left_Sleeve
							{
								OFFSET 0.267448 -0.649796 0.577675
								CHANNELS 3 Xrotation Yrotation Zrotation
								End Site
								{
									OFFSET 0.000000 15.991241 0.000000
								}
							}
							JOINT newVegas:Left_CapeC
							{
								OFFSET 15.715958 -8.608795 -6.935905
								CHANNELS 3 Xrotation Yrotation Zrotation
								JOINT newVegas:Left_CapeC1
								{
									OFFSET 0.000000 -8.688499 0.000000
									CHANNELS 3 Xrotation Yrotation Zrotation
									End Site
									{
										OFFSET 0.000000 8.688499 0.000000
									}
								}
							}
						}
						JOINT newVegas:Left_CapeB
						{
							OFFSET 26.118385 -8.608795 -7.079235
							CHANNELS 3 Xrotation Yrotation Zrotation
							JOINT newVegas:Left_CapeB1
							{
								OFFSET 0.000000 -8.688499 0.000000
								CHANNELS 3 Xrotation Yrotation Zrotation
								End Site
								{
									OFFSET 0.000000 8.688499 0.000000
								}
							}
						}
						JOINT newVegas:Left_CapeA
						{
							OFFSET 5.115639 -8.608795 -10.395809
							CHANNELS 3 Xrotation Yrotation Zrotation
							JOINT newVegas:Left_CapeA1
							{
								OFFSET 0.000000 -8.688499 0.000000
								CHANNELS 3 Xrotation Yrotation Zrotation
								End Site
								{
									OFFSET 0.000000 8.688499 0.000000
								}
							}
						}
					}
				}
				JOINT newVegas:RightShoulder
				{
					OFFSET -15.263000 10.923401 -0.547700
					CHANNELS 3 Xrotation Yrotation Zrotation
					JOINT newVegas:RightArm
					{
						OFFSET -25.438599 -2.830597 -13.032500
						CHANNELS 3 Xrotation Yrotation Zrotation
						JOINT newVegas:RightForeArm
						{
							OFFSET -29.960503 0.000000 0.000000
							CHANNELS 3 Xrotation Yrotation Zrotation
							JOINT newVegas:RightHand
							{
								OFFSET -27.849251 0.000000 0.000000
								CHANNELS 3 Xrotation Yrotation Zrotation
								JOINT newVegas:RightHandThumb1
								{
									OFFSET -4.487587 -3.305161 6.305391
									CHANNELS 3 Xrotation Yrotation Zrotation
									JOINT newVegas:RightHandThumb2
									{
										OFFSET -5.480453 -3.164139 3.164143
										CHANNELS 3 Xrotation Yrotation Zrotation
										JOINT newVegas:RightHandThumb3
										{
											OFFSET -5.159721 -2.978973 2.978967
											CHANNELS 3 Xrotation Yrotation Zrotation
											End Site
											{
												OFFSET -2.494507 5.926697 1.738678
											}
										}
									}
								}
								JOINT newVegas:RightHandIndex1
								{
									OFFSET -18.578728 -0.527832 5.208049
									CHANNELS 3 Xrotation Yrotation Zrotation
									JOINT newVegas:RightHandIndex2
									{
										OFFSET -3.192009 0.000000 0.000000
										CHANNELS 3 Xrotation Yrotation Zrotation
										JOINT newVegas:RightHandIndex3
										{
											OFFSET -3.835129 0.000000 0.000000
											CHANNELS 3 Xrotation Yrotation Zrotation
											End Site
											{
												OFFSET 0.034599 3.816971 0.371180
											}
										}
									}
								}
								JOINT newVegas:RightHandMiddle1
								{
									OFFSET -18.476105 0.000000 0.000000
									CHANNELS 3 Xrotation Yrotation Zrotation
									JOINT newVegas:RightHandMiddle2
									{
										OFFSET -3.324875 0.000000 0.000000
										CHANNELS 3 Xrotation Yrotation Zrotation
										JOINT newVegas:RightHandMiddle3
										{
											OFFSET -4.596550 0.000000 0.000000
											CHANNELS 3 Xrotation Yrotation Zrotation
											End Site
											{
												OFFSET -0.057701 4.578827 0.399218
											}
										}
									}
								}
								JOINT newVegas:RightHandRing1
								{
									OFFSET -17.732719 0.121887 -4.201567
									CHANNELS 3 Xrotation Yrotation Zrotation
									JOINT newVegas:RightHandRing2
									{
										OFFSET -2.733170 0.000000 0.000000
										CHANNELS 3 Xrotation Yrotation Zrotation
										JOINT newVegas:RightHandRing3
										{
											OFFSET -3.178268 0.000000 0.000000
											CHANNELS 3 Xrotation Yrotation Zrotation
											End Site
											{
												OFFSET -0.119102 3.170624 0.185394
											}
										}
									}
								}
								JOINT newVegas:RightHandPinky1
								{
									OFFSET -15.989624 -0.606689 -7.535461
									CHANNELS 3 Xrotation Yrotation Zrotation
									JOINT newVegas:RightHandPinky2
									{
										OFFSET -2.538986 0.000000 0.000000
										CHANNELS 3 Xrotation Yrotation Zrotation
										JOINT newVegas:RightHandPinky3
										{
											OFFSET -2.593102 0.000000 0.000000
											CHANNELS 3 Xrotation Yrotation Zrotation
											End Site
											{
												OFFSET 0.150902 2.584198 0.152708
											}
										}
									}
								}
							}
							JOINT newVegas:Right_CapeC
							{
								OFFSET -15.715958 -8.608795 -6.935905
								CHANNELS 3 Xrotation Yrotation Zrotation
								JOINT newVegas:Right_CapeC1
								{
									OFFSET 0.000000 -8.688499 0.000000
									CHANNELS 3 Xrotation Yrotation Zrotation
									End Site
									{
										OFFSET 0.000000 8.688499 0.000000
									}
								}
							}
							JOINT newVegas:Right_Sleeve
							{
								OFFSET -0.267448 -0.649994 0.577675
								CHANNELS 3 Xrotation Yrotation Zrotation
								End Site
								{
									OFFSET 0.000000 15.991302 0.000000
								}
							}
						}
						JOINT newVegas:Right_CapeA
						{
							OFFSET -5.115540 -8.608795 -10.395824
							CHANNELS 3 Xrotation Yrotation Zrotation
							JOINT newVegas:Right_CapeA1
							{
								OFFSET 0.000000 -8.688499 0.000000
								CHANNELS 3 Xrotation Yrotation Zrotation
								End Site
								{
									OFFSET 0.000000 8.688499 0.000000
								}
							}
						}
						JOINT newVegas:Right_CapeB
						{
							OFFSET -26.118187 -8.608795 -7.079266
							CHANNELS 3 Xrotation Yrotation Zrotation
							JOINT newVegas:Right_CapeB1
							{
								OFFSET 0.000000 -8.688499 0.000000
								CHANNELS 3 Xrotation Yrotation Zrotation
								End Site
								{
									OFFSET 0.000000 8.688499 0.000000
								}
							}
						}
					}
				}
				JOINT newVegas:Left_Collar
				{
					OFFSET 18.625099 8.655502 8.828100
					CHANNELS 3 Xrotation Yrotation Zrotation
					JOINT newVegas:Left_Collar1
					{
						OFFSET 14.783401 10.540405 -1.259500
						CHANNELS 3 Xrotation Yrotation Zrotation
						End Site
						{
							OFFSET 0.000000 18.199875 0.000000
						}
					}
				}
				JOINT newVegas:Collar_Back
				{
					OFFSET 0.000000 15.630707 -20.132601
					CHANNELS 3 Xrotation Yrotation Zrotation
					End Site
					{
						OFFSET 0.000000 22.523010 0.000000
					}
				}
				JOINT newVegas:Left_Peck
				{
					OFFSET 17.239599 -5.132599 25.482599
					CHANNELS 3 Xrotation Yrotation Zrotation
					End Site
					{
						OFFSET 0.000000 22.523010 0.000000
					}
				}
				JOINT newVegas:Right_Peck
				{
					OFFSET -17.239599 -5.132202 25.482599
					CHANNELS 3 Xrotation Yrotation Zrotation
					End Site
					{
						OFFSET 0.000000 22.523010 0.000000
					}
				}
				JOINT newVegas:Right_Collar
				{
					OFFSET -18.625099 8.655792 8.828100
					CHANNELS 3 Xrotation Yrotation Zrotation
					JOINT newVegas:Right_Collar1
					{
						OFFSET -14.783401 10.539993 -1.259500
						CHANNELS 3 Xrotation Yrotation Zrotation
						End Site
						{
							OFFSET 0.000000 18.199631 0.000000
						}
					}
				}
			}
		}
		JOINT newVegas:Belly
		{
			OFFSET 0.000000 -6.540398 9.014299
			CHANNELS 3 Xrotation Yrotation Zrotation
			End Site
			{
				OFFSET 0.000000 11.566666 0.000000
			}
		}
	}
	JOINT newVegas:ElvisFacialAnim_Joint
	{
		OFFSET 1.000000 -95.330101 -8.825800
		CHANNELS 3 Xrotation Yrotation Zrotation
		End Site
		{
			OFFSET 0.000000 35.315800 0.000000
		}
	}
}
MOTION
Frames: 4
Frame Time: 0.033333
11.683678 33.922989 17.800407 -7.423662 9.892809 -0.996134 0.000001 0.000000 -0.000000 -29.628510 -15.294226 27.677173 118.253141 0.665475 0.883030 53.441637 -2.395490 -6.056759 -0.000000 -0.000001 -0.000001 0.000001 0.000002 0.000002 -62.352735 27.125374 -10.733277 138.496675 1.766758 -0.494006 31.943900 -14.950861 2.305278 0.000000 -0.000001 -0.000000 0.000001 -0.000000 0.000000 15.413980 2.386108 5.029044 2.988145 0.603454 0.565393 2.992136 0.607231 0.546715 0.382944 -0.510736 0.313319 0.382943 -0.510735 0.313317 0.000002 0.000000 -0.000000 0.382947 -0.510730 0.313317 0.382978 -0.510727 0.313317 0.000001 -0.000001 -0.000000 0.000002 0.000000 -0.000000 2.708825 -11.765415 -8.038432 1.430094 -8.774475 -83.140252 0.000011 -65.943407 0.000016 27.560170 -0.519236 -37.392847 -3.476150 5.196396 24.195877 6.867000 12.702642 0.407776 0.000005 0.000003 -0.000003 5.195089 17.015388 -20.152164 0.233341 1.638489 -16.208640 0.000001 -0.000000 0.000004 4.379747 13.917458 -22.117682 0.494399 2.357378 -23.685902 0.000004 0.000001 -0.000002 4.435943 14.841712 -20.514034 0.915490 3.146325 -32.439283 0.000001 0.000001 0.000001 2.804595 15.805565 -11.496860 1.348373 3.740233 -39.637374 0.000001 -0.000005 0.000002 -0.000000 0.000003 0.000000 -0.000000 0.000003 0.000000 -0.000000 0.000003 0.000001 -0.000000 -0.000001 -0.000000 -0.000000 -0.000001 0.000000 -0.000000 -0.000001 -0.000000 -0.000000 -0.000001 -0.000000 1.873457 14.304890 10.910478 10.727259 4.203500 74.596061 0.000115 78.286966 -0.000130 34.115128 -1.525517 42.817927 -19.566308 1.881832 -17.604826 17.220500 -31.660758 -5.340300 0.000001 -0.000001 0.000001 -0.117973 -1.209516 7.035927 0.194616 -1.333571 16.604931 -0.000001 0.000001 -0.000001 0.112209 -3.126900 14.659019 0.724489 -2.496588 32.360036 0.000004 -0.000001 -0.000003 1.754815 -7.259961 22.765651 1.014626 -2.903864 38.512633 -0.000001 0.000001 -0.000001 3.270774 -9.790346 26.475997 1.211095 -3.134581 42.241431 -0.000001 0.000002 -0.000001 0.000003 0.000003 -0.000003 0.000001 0.000003 -0.000000 0.000002 0.000004 -0.000004 -0.000002 -0.000001 0.000001 -0.000002 0.000000 0.000000 -0.000002 -0.000001 0.000001 -0.000002 -0.000000 0.000000 0.000001 -0.000001 -0.000000 0.000001 -0.000001 -0.000000 0.000001 -0.000001 -0.000000 0.000001 -0.000001 -0.000000 0.000001 -0.000001 -0.000000 0.000001 -0.000001 -0.000000 0.000001 -0.000001 -0.000000 -0.000001 -0.000001 -0.000000 0.000001 0.000000 -0.000000 
11.477137 34.000999 17.888283 -8.310461 11.007813 -0.721791 -0.000000 -0.000000 0.000000 -30.074061 -16.076208 27.637860 118.529300 0.992225 0.972769 53.808606 -1.743303 -4.533054 -0.000003 0.000000 0.000001 0.000001 0.000001 0.000001 -59.132096 25.902009 -12.490359 138.496320 1.571763 -0.570804 30.631694 -15.389084 2.868778 -0.000000 0.000002 -0.000000 0.000001 -0.000001 0.000000 15.450545 2.237306 5.256364 3.039125 0.551648 0.665392 3.043061 0.553548 0.649187 0.530285 -0.572359 0.467966 0.530290 -0.572363 0.467967 0.000002 -0.000000 -0.000000 0.530209 -0.572361 0.467965 0.530363 -0.572348 0.467965 -0.000001 0.000001 -0.000000 0.000002 -0.000000 0.000000 2.751382 -11.516563 -7.657836 1.468393 -9.371277 -83.457924 0.000046 -66.021578 0.000044 26.465342 0.103904 -36.923385 -3.475676 5.195936 24.195433 6.870552 12.702359 0.407267 -0.000001 0.000002 -0.000001 5.194866 17.014782 -20.152144 0.233345 1.638478 -16.208645 0.000000 0.000000 0.000001 4.379677 13.917205 -22.117845 0.494424 2.357418 -23.686427 0.000001 -0.000001 -0.000001 4.435327 14.839650 -20.514943 0.915552 3.146436 -32.440544 -0.000002 -0.000004 -0.000002 2.804702 15.805884 -11.497087 1.348386 3.740249 -39.637575 0.000003 -0.000005 0.000002 -0.000000 -0.000001 0.000000 -0.000000 -0.000001 0.000000 -0.000000 -0.000001 0.000001 0.000000 0.000001 -0.000000 0.000000 0.000001 0.000000 0.000000 0.000001 -0.000000 0.000000 0.000001 -0.000000 1.955187 13.715634 10.675657 10.419511 5.150104 74.634946 -0.000048 78.436806 0.000058 34.911785 -2.341071 44.218436 -19.665445 1.930846 -17.770146 17.220524 -31.661448 -5.340421 0.000002 -0.000000 -0.000001 -0.117997 -1.209197 7.035949 0.194616 -1.333575 16.604924 -0.000000 0.000000 -0.000002 0.112169 -3.126695 14.656602 0.724388 -2.496455 32.357639 -0.000001 -0.000000 0.000004 1.754844 -7.260113 22.765435 1.014555 -2.903760 38.511079 -0.000002 -0.000001 -0.000001 3.270876 -9.790595 26.475736 1.211074 -3.134559 42.241073 -0.000000 0.000003 -0.000001 0.000001 0.000001 0.000001 0.000000 0.000000 0.000002 -0.000000 0.000001 0.000001 0.000002 0.000001 0.000000 0.000002 0.000001 0.000000 0.000002 0.000001 0.000000 0.000002 0.000001 0.000000 -0.000001 0.000000 -0.000000 -0.000001 0.000000 -0.000000 -0.000001 0.000000 -0.000000 -0.000001 0.000000 -0.000000 -0.000001 0.000000 -0.000000 -0.000001 0.000000 -0.000000 -0.000001 0.000000 -0.000000 0.000000 0.000000 0.000000 -0.000000 -0.000000 0.000000 
11.306189 33.964020 17.842037 -8.935296 11.789373 -0.704330 0.000000 0.000000 -0.000000 -29.923916 -16.887573 28.261593 118.356537 1.332785 1.054263 54.788950 -1.491714 -3.895777 -0.000000 0.000000 0.000002 0.000001 0.000000 0.000000 -56.754736 26.011529 -13.128331 138.226500 2.983985 -0.282517 29.916177 -13.912366 3.489022 -0.000000 -0.000002 0.000000 -0.000002 -0.000001 -0.000001 15.521704 1.833385 5.424669 3.059102 0.434041 0.736007 3.062075 0.434921 0.724512 0.601100 -0.592592 0.572401 0.601102 -0.592592 0.572403 0.000001 0.000001 -0.000000 0.601103 -0.592593 0.572402 0.601062 -0.592602 0.572402 -0.000002 -0.000001 -0.000000 0.000001 0.000001 -0.000000 2.779558 -11.381333 -7.296329 1.827372 -9.655195 -83.645796 0.000014 -66.465718 0.000031 25.260855 0.764683 -36.319698 -3.475127 5.195446 24.194933 6.874183 12.702049 0.407012 0.000001 -0.000003 0.000000 5.194590 17.014107 -20.152152 0.233337 1.638497 -16.208652 -0.000002 -0.000001 0.000004 4.379582 13.916929 -22.117961 0.494449 2.357459 -23.686953 -0.000001 -0.000003 -0.000001 4.434988 14.837515 -20.517366 0.915669 3.146612 -32.442569 -0.000001 -0.000004 0.000002 2.804836 15.806250 -11.497333 1.348398 3.740275 -39.637835 -0.000001 -0.000003 -0.000000 -0.000000 0.000000 -0.000000 -0.000000 0.000000 -0.000000 -0.000000 0.000000 -0.000000 -0.000000 0.000000 -0.000000 -0.000000 0.000000 -0.000000 -0.000000 0.000000 -0.000000 -0.000000 -0.000000 -0.000000 2.017324 13.169792 10.642808 10.520902 5.944192 74.601327 0.000027 79.342749 -0.000012 35.757632 -3.455786 45.972887 -19.730528 1.961090 -17.873676 17.220659 -31.663592 -5.340620 0.000000 -0.000004 0.000001 -0.118048 -1.208841 7.035981 0.194616 -1.333572 16.604931 0.000001 -0.000003 -0.000002 0.112129 -3.126495 14.653911 0.724273 -2.496258 32.354910 -0.000003 0.000001 -0.000003 1.754902 -7.260285 22.765219 1.014419 -2.903583 38.507801 0.000000 0.000001 0.000001 3.270988 -9.790904 26.475452 1.211057 -3.134531 42.240673 0.000004 0.000003 -0.000001 -0.000001 0.000003 -0.000001 -0.000001 0.000001 0.000003 -0.000001 0.000003 -0.000001 0.000001 -0.000001 0.000001 0.000001 -0.000001 0.000001 0.000001 -0.000001 0.000001 0.000001 -0.000001 0.000001 -0.000000 -0.000000 0.000000 -0.000000 -0.000000 0.000000 -0.000000 -0.000000 0.000000 -0.000000 -0.000000 0.000000 -0.000000 -0.000000 0.000000 -0.000000 -0.000000 0.000000 -0.000000 -0.000000 0.000000 0.000000 -0.000000 0.000000 0.000000 0.000000 -0.000000 
11.111232 33.915520 17.783718 -9.211495 12.048021 -1.091033 0.000000 -0.000000 0.000000 -29.625618 -17.577002 29.372689 118.248716 1.239671 1.093713 55.481845 -1.322243 -3.737243 -0.000000 0.000001 0.000000 0.000001 -0.000004 0.000000 -55.537976 27.029464 -12.679002 137.814052 5.223128 0.189289 29.476310 -11.353472 4.344358 -0.000000 0.000000 0.000000 0.000003 0.000001 -0.000000 15.538185 1.520752 5.565090 3.048650 0.341119 0.785253 3.050749 0.341636 0.777451 0.591349 -0.582459 0.612559 0.591354 -0.582459 0.612560 0.000001 0.000000 -0.000000 0.591313 -0.582471 0.612561 0.591424 -0.582460 0.612560 0.000001 0.000001 -0.000000 0.000001 0.000000 -0.000000 2.795754 -11.281048 -7.141422 2.387268 -9.666076 -83.664695 0.000015 -67.102449 0.000008 24.729714 1.361939 -36.156306 -3.474528 5.194906 24.194396 6.877948 12.701716 0.407075 0.000001 0.000001 -0.000003 5.194307 17.013354 -20.152140 0.233329 1.638491 -16.208657 0.000003 -0.000002 -0.000002 4.379454 13.916618 -22.118033 0.494465 2.357523 -23.687400 0.000000 0.000000 -0.000003 4.434938 14.835372 -20.521145 0.915874 3.146961 -32.446663 0.000002 -0.000001 0.000003 2.804986 15.806641 -11.497591 1.348398 3.740288 -39.638098 0.000001 -0.000003 0.000001 -0.000000 -0.000001 0.000000 -0.000000 -0.000001 0.000000 -0.000000 -0.000001 0.000000 -0.000001 0.000002 -0.000000 -0.000001 0.000002 0.000000 -0.000001 0.000002 -0.000000 -0.000001 0.000002 -0.000000 2.023693 12.975234 10.897852 10.984365 6.039226 74.424801 0.000133 80.400131 -0.000146 36.371597 -3.945022 47.486873 -19.757297 1.971901 -17.911601 17.220879 -31.668503 -5.341385 0.000000 -0.000001 0.000001 -0.118090 -1.208462 7.036005 0.194615 -1.333573 16.604931 -0.000001 -0.000002 -0.000004 0.112093 -3.126243 14.650868 0.724140 -2.496053 32.351905 0.000003 -0.000000 -0.000001 1.754986 -7.260477 22.764949 1.014194 -2.903305 38.503948 0.000001 0.000001 0.000001 3.271116 -9.791238 26.475135 1.211034 -3.134508 42.240270 -0.000001 0.000005 -0.000000 0.000000 0.000001 0.000004 0.000000 0.000000 0.000005 0.000000 0.000000 0.000002 0.000004 0.000001 -0.000002 0.000004 0.000001 -0.000001 0.000004 0.000001 -0.000002 0.000004 0.000001 -0.000000 0.000000 0.000000 -0.000000 0.000000 0.000000 -0.000000 0.000000 0.000000 -0.000000 0.000000 0.000000 -0.000000 0.000000 0.000000 -0.000000 0.000000 0.000000 -0.000000 0.000000 0.000000 -0.000000 0.000000 0.000000 -0.000000 0.000000 -0.000000 0.000000 
